<mxfile host="app.diagrams.net" modified="2023-05-24T13:15:31.444Z" agent="Mozilla/5.0 (Windows NT 10.0; Win64; x64) AppleWebKit/537.36 (KHTML, like Gecko) Chrome/113.0.0.0 Safari/537.36" etag="DZF1ksORtoSjmvKK-DT5" version="21.3.3" type="github">
  <diagram name="第 1 页" id="RUqrERpe_QyLKVuVyf1N">
    <mxGraphModel dx="1050" dy="541" grid="1" gridSize="10" guides="1" tooltips="1" connect="1" arrows="1" fold="1" page="1" pageScale="1" pageWidth="3300" pageHeight="4681" math="0" shadow="0">
      <root>
        <mxCell id="0" />
        <mxCell id="1" parent="0" />
        <mxCell id="ivcDCC6j6fQwqN5pcVW6-7" style="edgeStyle=orthogonalEdgeStyle;rounded=0;orthogonalLoop=1;jettySize=auto;html=1;" edge="1" parent="1" source="ivcDCC6j6fQwqN5pcVW6-1" target="ivcDCC6j6fQwqN5pcVW6-2">
          <mxGeometry relative="1" as="geometry" />
        </mxCell>
        <mxCell id="ivcDCC6j6fQwqN5pcVW6-8" style="edgeStyle=orthogonalEdgeStyle;rounded=0;orthogonalLoop=1;jettySize=auto;html=1;exitX=1;exitY=0.5;exitDx=0;exitDy=0;" edge="1" parent="1" source="ivcDCC6j6fQwqN5pcVW6-1" target="ivcDCC6j6fQwqN5pcVW6-3">
          <mxGeometry relative="1" as="geometry" />
        </mxCell>
        <mxCell id="ivcDCC6j6fQwqN5pcVW6-1" value="管理员功能模块" style="rounded=0;whiteSpace=wrap;html=1;" vertex="1" parent="1">
          <mxGeometry x="450" y="60" width="120" height="60" as="geometry" />
        </mxCell>
        <mxCell id="ivcDCC6j6fQwqN5pcVW6-9" style="edgeStyle=orthogonalEdgeStyle;rounded=0;orthogonalLoop=1;jettySize=auto;html=1;exitX=1;exitY=0.5;exitDx=0;exitDy=0;entryX=0;entryY=0.5;entryDx=0;entryDy=0;" edge="1" parent="1" source="ivcDCC6j6fQwqN5pcVW6-2" target="ivcDCC6j6fQwqN5pcVW6-4">
          <mxGeometry relative="1" as="geometry" />
        </mxCell>
        <mxCell id="ivcDCC6j6fQwqN5pcVW6-12" style="edgeStyle=orthogonalEdgeStyle;rounded=0;orthogonalLoop=1;jettySize=auto;html=1;exitX=0.5;exitY=1;exitDx=0;exitDy=0;entryX=0.5;entryY=0;entryDx=0;entryDy=0;" edge="1" parent="1" source="ivcDCC6j6fQwqN5pcVW6-2" target="ivcDCC6j6fQwqN5pcVW6-6">
          <mxGeometry relative="1" as="geometry" />
        </mxCell>
        <mxCell id="ivcDCC6j6fQwqN5pcVW6-13" style="edgeStyle=orthogonalEdgeStyle;rounded=0;orthogonalLoop=1;jettySize=auto;html=1;exitX=1;exitY=0.5;exitDx=0;exitDy=0;entryX=0;entryY=0.5;entryDx=0;entryDy=0;" edge="1" parent="1" source="ivcDCC6j6fQwqN5pcVW6-2" target="ivcDCC6j6fQwqN5pcVW6-5">
          <mxGeometry relative="1" as="geometry" />
        </mxCell>
        <mxCell id="ivcDCC6j6fQwqN5pcVW6-2" value="一级管理员" style="rounded=0;whiteSpace=wrap;html=1;" vertex="1" parent="1">
          <mxGeometry x="270" y="190" width="120" height="60" as="geometry" />
        </mxCell>
        <mxCell id="ivcDCC6j6fQwqN5pcVW6-10" style="edgeStyle=orthogonalEdgeStyle;rounded=0;orthogonalLoop=1;jettySize=auto;html=1;exitX=0.5;exitY=1;exitDx=0;exitDy=0;entryX=1;entryY=0.5;entryDx=0;entryDy=0;" edge="1" parent="1" source="ivcDCC6j6fQwqN5pcVW6-3" target="ivcDCC6j6fQwqN5pcVW6-4">
          <mxGeometry relative="1" as="geometry" />
        </mxCell>
        <mxCell id="ivcDCC6j6fQwqN5pcVW6-11" style="edgeStyle=orthogonalEdgeStyle;rounded=0;orthogonalLoop=1;jettySize=auto;html=1;exitX=0.5;exitY=1;exitDx=0;exitDy=0;entryX=1;entryY=0.5;entryDx=0;entryDy=0;" edge="1" parent="1" source="ivcDCC6j6fQwqN5pcVW6-3" target="ivcDCC6j6fQwqN5pcVW6-5">
          <mxGeometry relative="1" as="geometry" />
        </mxCell>
        <mxCell id="ivcDCC6j6fQwqN5pcVW6-3" value="二级管理员" style="rounded=0;whiteSpace=wrap;html=1;" vertex="1" parent="1">
          <mxGeometry x="620" y="190" width="120" height="60" as="geometry" />
        </mxCell>
        <mxCell id="ivcDCC6j6fQwqN5pcVW6-4" value="用户管理" style="rounded=0;whiteSpace=wrap;html=1;" vertex="1" parent="1">
          <mxGeometry x="450" y="240" width="120" height="60" as="geometry" />
        </mxCell>
        <mxCell id="ivcDCC6j6fQwqN5pcVW6-5" value="数据概览" style="rounded=0;whiteSpace=wrap;html=1;" vertex="1" parent="1">
          <mxGeometry x="450" y="340" width="120" height="60" as="geometry" />
        </mxCell>
        <mxCell id="ivcDCC6j6fQwqN5pcVW6-6" value="管理二级管理员" style="rounded=0;whiteSpace=wrap;html=1;" vertex="1" parent="1">
          <mxGeometry x="270" y="300" width="120" height="60" as="geometry" />
        </mxCell>
      </root>
    </mxGraphModel>
  </diagram>
</mxfile>
